<?xml version="1.0" encoding="UTF-8" standalone="no"?>
<!DOCTYPE svg PUBLIC "-//W3C//DTD SVG 1.1//EN"
 "http://www.w3.org/Graphics/SVG/1.1/DTD/svg11.dtd">
<!-- Generated by graphviz version 2.44.1 (20200629.0846)
 -->
<!-- Title: dependencies Pages: 1 -->
<svg width="1947pt" height="284pt"
 viewBox="0.00 0.00 1947.00 284.00" xmlns="http://www.w3.org/2000/svg" xmlns:xlink="http://www.w3.org/1999/xlink">
<g id="graph0" class="graph" transform="scale(1 1) rotate(0) translate(4 280)">
<title>dependencies</title>
<polygon fill="white" stroke="transparent" points="-4,4 -4,-280 1943,-280 1943,4 -4,4"/>
<text text-anchor="start" x="948.51" y="-42.4" font-family="sans-serif" font-weight="bold" font-size="14.00">Legend</text>
<polygon fill="#ffffb3" stroke="transparent" points="735.5,-10 735.5,-30 755.5,-30 755.5,-10 735.5,-10"/>
<text text-anchor="start" x="759.13" y="-15.4" font-family="sans-serif" font-size="14.00"> &#160;Declarations</text>
<polygon fill="#8dd3c7" stroke="transparent" points="848.5,-10 848.5,-30 868.5,-30 868.5,-10 848.5,-10"/>
<text text-anchor="start" x="872.23" y="-15.4" font-family="sans-serif" font-size="14.00"> &#160;Module</text>
<polygon fill="#80b1d3" stroke="transparent" points="934.5,-10 934.5,-30 954.5,-30 954.5,-10 934.5,-10"/>
<text text-anchor="start" x="958.28" y="-15.4" font-family="sans-serif" font-size="14.00"> &#160;Bootstrap</text>
<polygon fill="#fdb462" stroke="transparent" points="1031.5,-10 1031.5,-30 1051.5,-30 1051.5,-10 1031.5,-10"/>
<text text-anchor="start" x="1055.17" y="-15.4" font-family="sans-serif" font-size="14.00"> &#160;Providers</text>
<polygon fill="#fb8072" stroke="transparent" points="1127.5,-10 1127.5,-30 1147.5,-30 1147.5,-10 1127.5,-10"/>
<text text-anchor="start" x="1151.23" y="-15.4" font-family="sans-serif" font-size="14.00"> &#160;Exports</text>
<g id="clust1" class="cluster">
<title>cluster_AppModule</title>
<polygon fill="none" stroke="black" stroke-dasharray="1,5" points="8,-70 8,-268 1931,-268 1931,-70 8,-70"/>
</g>
<g id="clust2" class="cluster">
<title>cluster_AppModule_declarations</title>
<polygon fill="none" stroke="black" points="168,-78 168,-130 1923,-130 1923,-78 168,-78"/>
</g>
<g id="clust15" class="cluster">
<title>cluster_AppModule_imports</title>
<polygon fill="none" stroke="black" points="16,-78 16,-130 160,-130 160,-78 16,-78"/>
</g>
<g id="clust17" class="cluster">
<title>cluster_AppModule_bootstrap</title>
<polygon fill="none" stroke="black" points="916,-208 916,-260 1040,-260 1040,-208 916,-208"/>
</g>
<!-- AddEditRecipeComponent -->
<g id="node1" class="node">
<title>AddEditRecipeComponent</title>
<polygon fill="#ffffb3" stroke="black" points="1914.64,-122 1747.36,-122 1747.36,-86 1914.64,-86 1914.64,-122"/>
<text text-anchor="middle" x="1831" y="-99.8" font-family="Times,serif" font-size="14.00">AddEditRecipeComponent</text>
</g>
<!-- AppModule -->
<g id="node13" class="node">
<title>AppModule</title>
<polygon fill="#8dd3c7" stroke="black" points="1019.66,-187 1016.66,-191 995.66,-191 992.66,-187 936.34,-187 936.34,-151 1019.66,-151 1019.66,-187"/>
<text text-anchor="middle" x="978" y="-164.8" font-family="Times,serif" font-size="14.00">AppModule</text>
</g>
<!-- AddEditRecipeComponent&#45;&gt;AppModule -->
<g id="edge1" class="edge">
<title>AddEditRecipeComponent&#45;&gt;AppModule</title>
<path fill="none" stroke="black" d="M1831,-122.09C1831,-145.13 1831,-182 1831,-182 1831,-182 1029.72,-182 1029.72,-182"/>
<polygon fill="black" stroke="black" points="1029.72,-178.5 1019.72,-182 1029.72,-185.5 1029.72,-178.5"/>
</g>
<!-- AppComponent -->
<g id="node2" class="node">
<title>AppComponent</title>
<polygon fill="#ffffb3" stroke="black" points="1728.94,-122 1623.06,-122 1623.06,-86 1728.94,-86 1728.94,-122"/>
<text text-anchor="middle" x="1676" y="-99.8" font-family="Times,serif" font-size="14.00">AppComponent</text>
</g>
<!-- AppComponent&#45;&gt;AppModule -->
<g id="edge2" class="edge">
<title>AppComponent&#45;&gt;AppModule</title>
<path fill="none" stroke="black" d="M1676,-122.04C1676,-143.66 1676,-177 1676,-177 1676,-177 1029.83,-177 1029.83,-177"/>
<polygon fill="black" stroke="black" points="1029.83,-173.5 1019.83,-177 1029.83,-180.5 1029.83,-173.5"/>
</g>
<!-- ContactComponent -->
<g id="node3" class="node">
<title>ContactComponent</title>
<polygon fill="#ffffb3" stroke="black" points="1605.38,-122 1480.62,-122 1480.62,-86 1605.38,-86 1605.38,-122"/>
<text text-anchor="middle" x="1543" y="-99.8" font-family="Times,serif" font-size="14.00">ContactComponent</text>
</g>
<!-- ContactComponent&#45;&gt;AppModule -->
<g id="edge3" class="edge">
<title>ContactComponent&#45;&gt;AppModule</title>
<path fill="none" stroke="black" d="M1543,-122.22C1543,-142.37 1543,-172 1543,-172 1543,-172 1030.01,-172 1030.01,-172"/>
<polygon fill="black" stroke="black" points="1030.01,-168.5 1020.01,-172 1030.01,-175.5 1030.01,-168.5"/>
</g>
<!-- HomeComponent -->
<g id="node4" class="node">
<title>HomeComponent</title>
<polygon fill="#ffffb3" stroke="black" points="1462.55,-122 1347.45,-122 1347.45,-86 1462.55,-86 1462.55,-122"/>
<text text-anchor="middle" x="1405" y="-99.8" font-family="Times,serif" font-size="14.00">HomeComponent</text>
</g>
<!-- HomeComponent&#45;&gt;AppModule -->
<g id="edge4" class="edge">
<title>HomeComponent&#45;&gt;AppModule</title>
<path fill="none" stroke="black" d="M1405,-122.22C1405,-140.83 1405,-167 1405,-167 1405,-167 1029.72,-167 1029.72,-167"/>
<polygon fill="black" stroke="black" points="1029.72,-163.5 1019.72,-167 1029.72,-170.5 1029.72,-163.5"/>
</g>
<!-- LabelComponent -->
<g id="node5" class="node">
<title>LabelComponent</title>
<polygon fill="#ffffb3" stroke="black" points="1329.7,-122 1216.3,-122 1216.3,-86 1329.7,-86 1329.7,-122"/>
<text text-anchor="middle" x="1273" y="-99.8" font-family="Times,serif" font-size="14.00">LabelComponent</text>
</g>
<!-- LabelComponent&#45;&gt;AppModule -->
<g id="edge5" class="edge">
<title>LabelComponent&#45;&gt;AppModule</title>
<path fill="none" stroke="black" d="M1273,-122.03C1273,-139.06 1273,-162 1273,-162 1273,-162 1029.95,-162 1029.95,-162"/>
<polygon fill="black" stroke="black" points="1029.95,-158.5 1019.95,-162 1029.95,-165.5 1029.95,-158.5"/>
</g>
<!-- NavBarComponent -->
<g id="node6" class="node">
<title>NavBarComponent</title>
<polygon fill="#ffffb3" stroke="black" points="1198.37,-122 1073.63,-122 1073.63,-86 1198.37,-86 1198.37,-122"/>
<text text-anchor="middle" x="1136" y="-99.8" font-family="Times,serif" font-size="14.00">NavBarComponent</text>
</g>
<!-- NavBarComponent&#45;&gt;AppModule -->
<g id="edge6" class="edge">
<title>NavBarComponent&#45;&gt;AppModule</title>
<path fill="none" stroke="black" d="M1136,-122.24C1136,-137.57 1136,-157 1136,-157 1136,-157 1029.93,-157 1029.93,-157"/>
<polygon fill="black" stroke="black" points="1029.93,-153.5 1019.93,-157 1029.93,-160.5 1029.93,-153.5"/>
</g>
<!-- PersonalDataComponent -->
<g id="node7" class="node">
<title>PersonalDataComponent</title>
<polygon fill="#ffffb3" stroke="black" points="1055.97,-122 900.03,-122 900.03,-86 1055.97,-86 1055.97,-122"/>
<text text-anchor="middle" x="978" y="-99.8" font-family="Times,serif" font-size="14.00">PersonalDataComponent</text>
</g>
<!-- PersonalDataComponent&#45;&gt;AppModule -->
<g id="edge7" class="edge">
<title>PersonalDataComponent&#45;&gt;AppModule</title>
<path fill="none" stroke="black" d="M978,-122.11C978,-122.11 978,-140.99 978,-140.99"/>
<polygon fill="black" stroke="black" points="974.5,-140.99 978,-150.99 981.5,-140.99 974.5,-140.99"/>
</g>
<!-- RecipeComponent -->
<g id="node8" class="node">
<title>RecipeComponent</title>
<polygon fill="#ffffb3" stroke="black" points="882.2,-122 761.8,-122 761.8,-86 882.2,-86 882.2,-122"/>
<text text-anchor="middle" x="822" y="-99.8" font-family="Times,serif" font-size="14.00">RecipeComponent</text>
</g>
<!-- RecipeComponent&#45;&gt;AppModule -->
<g id="edge8" class="edge">
<title>RecipeComponent&#45;&gt;AppModule</title>
<path fill="none" stroke="black" d="M822,-122.24C822,-137.57 822,-157 822,-157 822,-157 926.19,-157 926.19,-157"/>
<polygon fill="black" stroke="black" points="926.19,-160.5 936.19,-157 926.19,-153.5 926.19,-160.5"/>
</g>
<!-- RecipesComponent -->
<g id="node9" class="node">
<title>RecipesComponent</title>
<polygon fill="#ffffb3" stroke="black" points="743.65,-122 618.35,-122 618.35,-86 743.65,-86 743.65,-122"/>
<text text-anchor="middle" x="681" y="-99.8" font-family="Times,serif" font-size="14.00">RecipesComponent</text>
</g>
<!-- RecipesComponent&#45;&gt;AppModule -->
<g id="edge9" class="edge">
<title>RecipesComponent&#45;&gt;AppModule</title>
<path fill="none" stroke="black" d="M681,-122.03C681,-139.06 681,-162 681,-162 681,-162 926.08,-162 926.08,-162"/>
<polygon fill="black" stroke="black" points="926.08,-165.5 936.08,-162 926.08,-158.5 926.08,-165.5"/>
</g>
<!-- RegisterComponent -->
<g id="node10" class="node">
<title>RegisterComponent</title>
<polygon fill="#ffffb3" stroke="black" points="599.98,-122 472.02,-122 472.02,-86 599.98,-86 599.98,-122"/>
<text text-anchor="middle" x="536" y="-99.8" font-family="Times,serif" font-size="14.00">RegisterComponent</text>
</g>
<!-- RegisterComponent&#45;&gt;AppModule -->
<g id="edge10" class="edge">
<title>RegisterComponent&#45;&gt;AppModule</title>
<path fill="none" stroke="black" d="M536,-122.22C536,-140.83 536,-167 536,-167 536,-167 926.02,-167 926.02,-167"/>
<polygon fill="black" stroke="black" points="926.02,-170.5 936.02,-167 926.02,-163.5 926.02,-170.5"/>
</g>
<!-- UserComponent -->
<g id="node11" class="node">
<title>UserComponent</title>
<polygon fill="#ffffb3" stroke="black" points="453.76,-122 346.24,-122 346.24,-86 453.76,-86 453.76,-122"/>
<text text-anchor="middle" x="400" y="-99.8" font-family="Times,serif" font-size="14.00">UserComponent</text>
</g>
<!-- UserComponent&#45;&gt;AppModule -->
<g id="edge11" class="edge">
<title>UserComponent&#45;&gt;AppModule</title>
<path fill="none" stroke="black" d="M400,-122.22C400,-142.37 400,-172 400,-172 400,-172 925.97,-172 925.97,-172"/>
<polygon fill="black" stroke="black" points="925.97,-175.5 935.97,-172 925.97,-168.5 925.97,-175.5"/>
</g>
<!-- UserRecipesComponent -->
<g id="node12" class="node">
<title>UserRecipesComponent</title>
<polygon fill="#ffffb3" stroke="black" points="328.07,-122 175.93,-122 175.93,-86 328.07,-86 328.07,-122"/>
<text text-anchor="middle" x="252" y="-99.8" font-family="Times,serif" font-size="14.00">UserRecipesComponent</text>
</g>
<!-- UserRecipesComponent&#45;&gt;AppModule -->
<g id="edge12" class="edge">
<title>UserRecipesComponent&#45;&gt;AppModule</title>
<path fill="none" stroke="black" d="M252,-122.04C252,-143.66 252,-177 252,-177 252,-177 926.09,-177 926.09,-177"/>
<polygon fill="black" stroke="black" points="926.09,-180.5 936.09,-177 926.09,-173.5 926.09,-180.5"/>
</g>
<!-- AppComponent  -->
<g id="node15" class="node">
<title>AppComponent </title>
<polygon fill="#80b1d3" stroke="black" points="1032.44,-252 923.56,-252 923.56,-216 1032.44,-216 1032.44,-252"/>
<text text-anchor="middle" x="978" y="-229.8" font-family="Times,serif" font-size="14.00">AppComponent </text>
</g>
<!-- AppModule&#45;&gt;AppComponent  -->
<g id="edge14" class="edge">
<title>AppModule&#45;&gt;AppComponent </title>
<path fill="none" stroke="black" stroke-dasharray="1,5" d="M978,-187.11C978,-187.11 978,-205.99 978,-205.99"/>
<polygon fill="black" stroke="black" points="974.5,-205.99 978,-215.99 981.5,-205.99 974.5,-205.99"/>
</g>
<!-- AppRoutingModule -->
<g id="node14" class="node">
<title>AppRoutingModule</title>
<polygon fill="#8dd3c7" stroke="black" points="152.27,-122 149.27,-126 128.27,-126 125.27,-122 23.73,-122 23.73,-86 152.27,-86 152.27,-122"/>
<text text-anchor="middle" x="88" y="-99.8" font-family="Times,serif" font-size="14.00">AppRoutingModule</text>
</g>
<!-- AppRoutingModule&#45;&gt;AppModule -->
<g id="edge13" class="edge">
<title>AppRoutingModule&#45;&gt;AppModule</title>
<path fill="none" stroke="black" d="M88,-122.09C88,-145.13 88,-182 88,-182 88,-182 926.27,-182 926.27,-182"/>
<polygon fill="black" stroke="black" points="926.27,-185.5 936.27,-182 926.27,-178.5 926.27,-185.5"/>
</g>
</g>
</svg>
