<?xml version="1.0" encoding="UTF-8" standalone="no"?>
<!DOCTYPE svg PUBLIC "-//W3C//DTD SVG 1.1//EN"
 "http://www.w3.org/Graphics/SVG/1.1/DTD/svg11.dtd">
<!-- Generated by graphviz version 2.44.1 (20200629.0846)
 -->
<!-- Title: dependencies Pages: 1 -->
<svg width="1947pt" height="284pt"
 viewBox="0.00 0.00 1947.00 284.00" xmlns="http://www.w3.org/2000/svg" xmlns:xlink="http://www.w3.org/1999/xlink">
<g id="graph0" class="graph" transform="scale(1 1) rotate(0) translate(4 280)">
<title>dependencies</title>
<polygon fill="white" stroke="transparent" points="-4,4 -4,-280 1943,-280 1943,4 -4,4"/>
<text text-anchor="start" x="948.51" y="-42.4" font-family="sans-serif" font-weight="bold" font-size="14.00">Legend</text>
<polygon fill="#ffffb3" stroke="transparent" points="735.5,-10 735.5,-30 755.5,-30 755.5,-10 735.5,-10"/>
<text text-anchor="start" x="759.13" y="-15.4" font-family="sans-serif" font-size="14.00"> &#160;Declarations</text>
<polygon fill="#8dd3c7" stroke="transparent" points="848.5,-10 848.5,-30 868.5,-30 868.5,-10 848.5,-10"/>
<text text-anchor="start" x="872.23" y="-15.4" font-family="sans-serif" font-size="14.00"> &#160;Module</text>
<polygon fill="#80b1d3" stroke="transparent" points="934.5,-10 934.5,-30 954.5,-30 954.5,-10 934.5,-10"/>
<text text-anchor="start" x="958.28" y="-15.4" font-family="sans-serif" font-size="14.00"> &#160;Bootstrap</text>
<polygon fill="#fdb462" stroke="transparent" points="1031.5,-10 1031.5,-30 1051.5,-30 1051.5,-10 1031.5,-10"/>
<text text-anchor="start" x="1055.17" y="-15.4" font-family="sans-serif" font-size="14.00"> &#160;Providers</text>
<polygon fill="#fb8072" stroke="transparent" points="1127.5,-10 1127.5,-30 1147.5,-30 1147.5,-10 1127.5,-10"/>
<text text-anchor="start" x="1151.23" y="-15.4" font-family="sans-serif" font-size="14.00"> &#160;Exports</text>
<g id="clust1" class="cluster">
<title>cluster_AppModule</title>
<polygon fill="none" stroke="black" stroke-dasharray="1,5" points="8,-70 8,-268 1931,-268 1931,-70 8,-70"/>
</g>
<g id="clust15" class="cluster">
<title>cluster_AppModule_imports</title>
<polygon fill="none" stroke="black" points="1779,-78 1779,-130 1923,-130 1923,-78 1779,-78"/>
</g>
<g id="clust17" class="cluster">
<title>cluster_AppModule_bootstrap</title>
<polygon fill="none" stroke="black" points="922,-208 922,-260 1046,-260 1046,-208 922,-208"/>
</g>
<g id="clust2" class="cluster">
<title>cluster_AppModule_declarations</title>
<polygon fill="none" stroke="black" points="16,-78 16,-130 1771,-130 1771,-78 16,-78"/>
</g>
<!-- AddEditRecipeComponent -->
<g id="node1" class="node">
<title>AddEditRecipeComponent</title>
<polygon fill="#ffffb3" stroke="black" points="1762.64,-122 1595.36,-122 1595.36,-86 1762.64,-86 1762.64,-122"/>
<text text-anchor="middle" x="1679" y="-99.8" font-family="Times,serif" font-size="14.00">AddEditRecipeComponent</text>
</g>
<!-- AppModule -->
<g id="node13" class="node">
<title>AppModule</title>
<polygon fill="#8dd3c7" stroke="black" points="1025.66,-187 1022.66,-191 1001.66,-191 998.66,-187 942.34,-187 942.34,-151 1025.66,-151 1025.66,-187"/>
<text text-anchor="middle" x="984" y="-164.8" font-family="Times,serif" font-size="14.00">AppModule</text>
</g>
<!-- AddEditRecipeComponent&#45;&gt;AppModule -->
<g id="edge1" class="edge">
<title>AddEditRecipeComponent&#45;&gt;AppModule</title>
<path fill="none" stroke="black" d="M1679,-122.04C1679,-143.66 1679,-177 1679,-177 1679,-177 1035.91,-177 1035.91,-177"/>
<polygon fill="black" stroke="black" points="1035.91,-173.5 1025.91,-177 1035.91,-180.5 1035.91,-173.5"/>
</g>
<!-- AppComponent -->
<g id="node2" class="node">
<title>AppComponent</title>
<polygon fill="#ffffb3" stroke="black" points="1576.94,-122 1471.06,-122 1471.06,-86 1576.94,-86 1576.94,-122"/>
<text text-anchor="middle" x="1524" y="-99.8" font-family="Times,serif" font-size="14.00">AppComponent</text>
</g>
<!-- AppComponent&#45;&gt;AppModule -->
<g id="edge2" class="edge">
<title>AppComponent&#45;&gt;AppModule</title>
<path fill="none" stroke="black" d="M1524,-122.22C1524,-142.37 1524,-172 1524,-172 1524,-172 1035.92,-172 1035.92,-172"/>
<polygon fill="black" stroke="black" points="1035.92,-168.5 1025.92,-172 1035.92,-175.5 1035.92,-168.5"/>
</g>
<!-- ContactComponent -->
<g id="node3" class="node">
<title>ContactComponent</title>
<polygon fill="#ffffb3" stroke="black" points="1453.38,-122 1328.62,-122 1328.62,-86 1453.38,-86 1453.38,-122"/>
<text text-anchor="middle" x="1391" y="-99.8" font-family="Times,serif" font-size="14.00">ContactComponent</text>
</g>
<!-- ContactComponent&#45;&gt;AppModule -->
<g id="edge3" class="edge">
<title>ContactComponent&#45;&gt;AppModule</title>
<path fill="none" stroke="black" d="M1391,-122.22C1391,-140.83 1391,-167 1391,-167 1391,-167 1036.02,-167 1036.02,-167"/>
<polygon fill="black" stroke="black" points="1036.02,-163.5 1026.02,-167 1036.02,-170.5 1036.02,-163.5"/>
</g>
<!-- HomeComponent -->
<g id="node4" class="node">
<title>HomeComponent</title>
<polygon fill="#ffffb3" stroke="black" points="1310.55,-122 1195.45,-122 1195.45,-86 1310.55,-86 1310.55,-122"/>
<text text-anchor="middle" x="1253" y="-99.8" font-family="Times,serif" font-size="14.00">HomeComponent</text>
</g>
<!-- HomeComponent&#45;&gt;AppModule -->
<g id="edge4" class="edge">
<title>HomeComponent&#45;&gt;AppModule</title>
<path fill="none" stroke="black" d="M1253,-122.03C1253,-139.06 1253,-162 1253,-162 1253,-162 1035.74,-162 1035.74,-162"/>
<polygon fill="black" stroke="black" points="1035.74,-158.5 1025.74,-162 1035.74,-165.5 1035.74,-158.5"/>
</g>
<!-- LabelComponent -->
<g id="node5" class="node">
<title>LabelComponent</title>
<polygon fill="#ffffb3" stroke="black" points="1177.7,-122 1064.3,-122 1064.3,-86 1177.7,-86 1177.7,-122"/>
<text text-anchor="middle" x="1121" y="-99.8" font-family="Times,serif" font-size="14.00">LabelComponent</text>
</g>
<!-- LabelComponent&#45;&gt;AppModule -->
<g id="edge5" class="edge">
<title>LabelComponent&#45;&gt;AppModule</title>
<path fill="none" stroke="black" d="M1121,-122.24C1121,-137.57 1121,-157 1121,-157 1121,-157 1035.85,-157 1035.85,-157"/>
<polygon fill="black" stroke="black" points="1035.85,-153.5 1025.85,-157 1035.85,-160.5 1035.85,-153.5"/>
</g>
<!-- NavBarComponent -->
<g id="node6" class="node">
<title>NavBarComponent</title>
<polygon fill="#ffffb3" stroke="black" points="1046.37,-122 921.63,-122 921.63,-86 1046.37,-86 1046.37,-122"/>
<text text-anchor="middle" x="984" y="-99.8" font-family="Times,serif" font-size="14.00">NavBarComponent</text>
</g>
<!-- NavBarComponent&#45;&gt;AppModule -->
<g id="edge6" class="edge">
<title>NavBarComponent&#45;&gt;AppModule</title>
<path fill="none" stroke="black" d="M984,-122.11C984,-122.11 984,-140.99 984,-140.99"/>
<polygon fill="black" stroke="black" points="980.5,-140.99 984,-150.99 987.5,-140.99 980.5,-140.99"/>
</g>
<!-- PersonalDataComponent -->
<g id="node7" class="node">
<title>PersonalDataComponent</title>
<polygon fill="#ffffb3" stroke="black" points="903.97,-122 748.03,-122 748.03,-86 903.97,-86 903.97,-122"/>
<text text-anchor="middle" x="826" y="-99.8" font-family="Times,serif" font-size="14.00">PersonalDataComponent</text>
</g>
<!-- PersonalDataComponent&#45;&gt;AppModule -->
<g id="edge7" class="edge">
<title>PersonalDataComponent&#45;&gt;AppModule</title>
<path fill="none" stroke="black" d="M826,-122.24C826,-137.57 826,-157 826,-157 826,-157 932.07,-157 932.07,-157"/>
<polygon fill="black" stroke="black" points="932.07,-160.5 942.07,-157 932.07,-153.5 932.07,-160.5"/>
</g>
<!-- RecipeComponent -->
<g id="node8" class="node">
<title>RecipeComponent</title>
<polygon fill="#ffffb3" stroke="black" points="730.2,-122 609.8,-122 609.8,-86 730.2,-86 730.2,-122"/>
<text text-anchor="middle" x="670" y="-99.8" font-family="Times,serif" font-size="14.00">RecipeComponent</text>
</g>
<!-- RecipeComponent&#45;&gt;AppModule -->
<g id="edge8" class="edge">
<title>RecipeComponent&#45;&gt;AppModule</title>
<path fill="none" stroke="black" d="M670,-122.03C670,-139.06 670,-162 670,-162 670,-162 932.3,-162 932.3,-162"/>
<polygon fill="black" stroke="black" points="932.3,-165.5 942.3,-162 932.3,-158.5 932.3,-165.5"/>
</g>
<!-- RecipesComponent -->
<g id="node9" class="node">
<title>RecipesComponent</title>
<polygon fill="#ffffb3" stroke="black" points="591.65,-122 466.35,-122 466.35,-86 591.65,-86 591.65,-122"/>
<text text-anchor="middle" x="529" y="-99.8" font-family="Times,serif" font-size="14.00">RecipesComponent</text>
</g>
<!-- RecipesComponent&#45;&gt;AppModule -->
<g id="edge9" class="edge">
<title>RecipesComponent&#45;&gt;AppModule</title>
<path fill="none" stroke="black" d="M529,-122.22C529,-140.83 529,-167 529,-167 529,-167 932.01,-167 932.01,-167"/>
<polygon fill="black" stroke="black" points="932.01,-170.5 942.01,-167 932.01,-163.5 932.01,-170.5"/>
</g>
<!-- RegisterComponent -->
<g id="node10" class="node">
<title>RegisterComponent</title>
<polygon fill="#ffffb3" stroke="black" points="447.98,-122 320.02,-122 320.02,-86 447.98,-86 447.98,-122"/>
<text text-anchor="middle" x="384" y="-99.8" font-family="Times,serif" font-size="14.00">RegisterComponent</text>
</g>
<!-- RegisterComponent&#45;&gt;AppModule -->
<g id="edge10" class="edge">
<title>RegisterComponent&#45;&gt;AppModule</title>
<path fill="none" stroke="black" d="M384,-122.22C384,-142.37 384,-172 384,-172 384,-172 932.29,-172 932.29,-172"/>
<polygon fill="black" stroke="black" points="932.29,-175.5 942.29,-172 932.29,-168.5 932.29,-175.5"/>
</g>
<!-- UserComponent -->
<g id="node11" class="node">
<title>UserComponent</title>
<polygon fill="#ffffb3" stroke="black" points="301.76,-122 194.24,-122 194.24,-86 301.76,-86 301.76,-122"/>
<text text-anchor="middle" x="248" y="-99.8" font-family="Times,serif" font-size="14.00">UserComponent</text>
</g>
<!-- UserComponent&#45;&gt;AppModule -->
<g id="edge11" class="edge">
<title>UserComponent&#45;&gt;AppModule</title>
<path fill="none" stroke="black" d="M248,-122.04C248,-143.66 248,-177 248,-177 248,-177 932.32,-177 932.32,-177"/>
<polygon fill="black" stroke="black" points="932.32,-180.5 942.32,-177 932.32,-173.5 932.32,-180.5"/>
</g>
<!-- UserRecipesComponent -->
<g id="node12" class="node">
<title>UserRecipesComponent</title>
<polygon fill="#ffffb3" stroke="black" points="176.07,-122 23.93,-122 23.93,-86 176.07,-86 176.07,-122"/>
<text text-anchor="middle" x="100" y="-99.8" font-family="Times,serif" font-size="14.00">UserRecipesComponent</text>
</g>
<!-- UserRecipesComponent&#45;&gt;AppModule -->
<g id="edge12" class="edge">
<title>UserRecipesComponent&#45;&gt;AppModule</title>
<path fill="none" stroke="black" d="M100,-122.09C100,-145.13 100,-182 100,-182 100,-182 932.25,-182 932.25,-182"/>
<polygon fill="black" stroke="black" points="932.25,-185.5 942.25,-182 932.25,-178.5 932.25,-185.5"/>
</g>
<!-- AppComponent  -->
<g id="node15" class="node">
<title>AppComponent </title>
<polygon fill="#80b1d3" stroke="black" points="1038.44,-252 929.56,-252 929.56,-216 1038.44,-216 1038.44,-252"/>
<text text-anchor="middle" x="984" y="-229.8" font-family="Times,serif" font-size="14.00">AppComponent </text>
</g>
<!-- AppModule&#45;&gt;AppComponent  -->
<g id="edge14" class="edge">
<title>AppModule&#45;&gt;AppComponent </title>
<path fill="none" stroke="black" stroke-dasharray="1,5" d="M984,-187.11C984,-187.11 984,-205.99 984,-205.99"/>
<polygon fill="black" stroke="black" points="980.5,-205.99 984,-215.99 987.5,-205.99 980.5,-205.99"/>
</g>
<!-- AppRoutingModule -->
<g id="node14" class="node">
<title>AppRoutingModule</title>
<polygon fill="#8dd3c7" stroke="black" points="1915.27,-122 1912.27,-126 1891.27,-126 1888.27,-122 1786.73,-122 1786.73,-86 1915.27,-86 1915.27,-122"/>
<text text-anchor="middle" x="1851" y="-99.8" font-family="Times,serif" font-size="14.00">AppRoutingModule</text>
</g>
<!-- AppRoutingModule&#45;&gt;AppModule -->
<g id="edge13" class="edge">
<title>AppRoutingModule&#45;&gt;AppModule</title>
<path fill="none" stroke="black" d="M1851,-122.09C1851,-145.13 1851,-182 1851,-182 1851,-182 1035.82,-182 1035.82,-182"/>
<polygon fill="black" stroke="black" points="1035.82,-178.5 1025.82,-182 1035.82,-185.5 1035.82,-178.5"/>
</g>
</g>
</svg>
